HIERARCHY
ROOT root
{
	OFFSET	0	13.1	24.9
	CHANNELS 6  Xposition Yposition Zposition Xrotation Yrotation Zrotation
	JOINT spine_1
	{
		OFFSET	0	9.99999	0
		CHANNELS 3  Xrotation Yrotation Zrotation
		JOINT spine_2
		{
			OFFSET	0	112	-10
			CHANNELS 3  Xrotation Yrotation Zrotation
			JOINT spine_3
			{
				OFFSET	0	206.5	19.3
				CHANNELS 3  Xrotation Yrotation Zrotation
				JOINT spine_4
				{
					OFFSET	0	110.4	14.6
					CHANNELS 3  Xrotation Yrotation Zrotation
					JOINT neck_1
					{
						OFFSET	0	71.8	-50.3
						CHANNELS 3  Xrotation Yrotation Zrotation
						JOINT neck_2
						{
							OFFSET	0	86.2	-25.8
							CHANNELS 3  Xrotation Yrotation Zrotation
							JOINT head_ee
							{
								OFFSET	0	179.8	-8.7
								CHANNELS 3  Xrotation Yrotation Zrotation
								End Site
								{
									OFFSET	1	0	0
								}
							}
						}
					}
					JOINT left_clavicle
					{
						OFFSET	-43.2	22.4	-70.8
						CHANNELS 3  Xrotation Yrotation Zrotation
						JOINT left_shoulder
						{
							OFFSET	-93.9	-5.79999	48.7
							CHANNELS 3  Xrotation Yrotation Zrotation
							JOINT left_elbow
							{
								OFFSET	-291.4	-30.8	15.2
								CHANNELS 3  Xrotation Yrotation Zrotation
								JOINT left_lowarm_twist
								{
									OFFSET	-110.7	-3.89999	13.6
									CHANNELS 3  Xrotation Yrotation Zrotation
									JOINT left_hand
									{
										OFFSET	-110.7	-3.89999	13.6
										CHANNELS 3  Xrotation Yrotation Zrotation
										JOINT left_ee
										{
											OFFSET	-80.8	-5.10001	12.1
											CHANNELS 3  Xrotation Yrotation Zrotation
											End Site
											{
												OFFSET	1	0	0
											}
										}
									}
								}
							}
						}
					}
					JOINT right_clavicle
					{
						OFFSET	43.2	22.4	-70.8
						CHANNELS 3  Xrotation Yrotation Zrotation
						JOINT right_shoulder
						{
							OFFSET	93.9	-5.79999	48.7
							CHANNELS 3  Xrotation Yrotation Zrotation
							JOINT right_elbow
							{
								OFFSET	291.4	-30.8	15.2
								CHANNELS 3  Xrotation Yrotation Zrotation
								JOINT right_lowarm_twist
								{
									OFFSET	110.7	-3.89999	13.6
									CHANNELS 3  Xrotation Yrotation Zrotation
									JOINT right_hand
									{
										OFFSET	110.7	-3.89999	13.6
										CHANNELS 3  Xrotation Yrotation Zrotation
										JOINT right_ee
										{
											OFFSET	80.8	-5.10001	12.1
											CHANNELS 3  Xrotation Yrotation Zrotation
											End Site
											{
												OFFSET	1	0	0
											}
										}
									}
								}
							}
						}
					}
				}
			}
		}
	}
	JOINT left_hip
	{
		OFFSET	-82.8	-127.5	0.300001
		CHANNELS 3  Xrotation Yrotation Zrotation
		JOINT left_knee
		{
			OFFSET	-28.2	-396.7	2.2
			CHANNELS 3  Xrotation Yrotation Zrotation
			JOINT left_ankle
			{
				OFFSET	-11.7	-411.3	35.4
				CHANNELS 3  Xrotation Yrotation Zrotation
				JOINT left_toes
				{
					OFFSET	0	-60	-88.6
					CHANNELS 3  Xrotation Yrotation Zrotation
					JOINT left_foot_ee
					{
						OFFSET	-22.5	-16.5	-42.2
						CHANNELS 3  Xrotation Yrotation Zrotation
						End Site
						{
							OFFSET	1	0	0
						}
					}
				}
			}
		}
	}
	JOINT right_hip
	{
		OFFSET	82.8	-127.5	0.300001
		CHANNELS 3  Xrotation Yrotation Zrotation
		JOINT right_knee
		{
			OFFSET	28.2	-396.7	2.2
			CHANNELS 3  Xrotation Yrotation Zrotation
			JOINT right_ankle
			{
				OFFSET	11.7	-411.3	35.4
				CHANNELS 3  Xrotation Yrotation Zrotation
				JOINT right_toes
				{
					OFFSET	0	-60	-88.6
					CHANNELS 3  Xrotation Yrotation Zrotation
					JOINT right_foot_ee
					{
						OFFSET	22.5	-16.5	-42.2
						CHANNELS 3  Xrotation Yrotation Zrotation
						End Site
						{
							OFFSET	1	0	0
						}
					}
				}
			}
		}
	}
}
MOTION
Frames: 13
Frame Time: 0.02
1516.79 713.165 -1350.5 3.47148 75.4417 -1.19934 0.568074 0.0119572 1.14832 0.568806 -0.0611327 1.14675 0.567772 -0.289831 1.11121 0.566066 -0.11071 1.14303 -8.23482 -4.29671 3.48259 -8.20669 -10.4748 2.49695 -0.0 0.0 -0.0 0.66388 3.96047 1.70121 16.3817 -25.4194 65.0554 0.950215 -25.2064 0.212458 -9.84368 -0.448966 1.17415 0.871422 7.88634 8.96531 -0.0 0.0 -0.0 10.1395 24.8857 -19.2919 -17.5738 -0.0448385 -70.0493 0.955381 25.3262 -0.214663 73.7952 3.14339 8.22205 -1.09493 -28.2241 -5.07317 0.0 0.0 0.0 -3.28479 14.532 1.47805 7.4769 -0.379253 -1.08338 22.7836 -5.40779 -3.14126 -11.7543 0.0 0.0 -0.0 0.0 -0.0 20.2127 7.99099 0.427279 -43.8658 0.73084 -6.53078 27.0248 -8.26039 3.56357 -4.4991 0.0 0.0 0.0 0.0 0.0 
1501.49 708.344 -1346.21 3.2736 74.4032 -1.20448 0.734012 -0.00802738 1.23489 0.734856 -0.0865842 1.23188 0.73317 -0.328409 1.19045 0.731218 -0.136293 1.22737 -7.44937 -4.0611 2.88808 -7.42295 -9.62411 2.02869 -0.0 0.0 -0.0 0.978598 4.45381 2.33301 17.2725 -25.7284 64.673 1.06105 -27.7263 0.261866 -10.5881 -0.491036 1.25958 0.289126 -0.587191 1.68616 -0.0 0.0 -0.0 9.5399 22.3363 -18.1887 -18.1321 -0.273816 -70.2327 0.94113 24.9949 -0.208604 74.5426 3.22485 8.2727 -0.600285 -25.1672 -6.56984 0.0 0.0 0.0 -3.86667 16.2026 2.25388 6.16907 -0.302734 -0.89752 29.658 -6.39102 -3.94533 -12.5554 0.0 0.0 -0.0 0.0 -0.0 19.2866 8.7416 0.276573 -39.1077 0.41098 -5.87298 29.0272 -3.24222 3.78833 -3.79701 0.0 0.0 0.0 0.0 0.0 
1489.02 709.648 -1342.84 4.40281 74.8415 -2.86792 0.707962 0.0232032 1.33085 0.708945 -0.0615213 1.32963 0.707746 -0.32374 1.29108 0.705438 -0.115793 1.326 -8.69681 -4.34899 2.34811 -8.69359 -9.77538 1.32005 -0.0 0.0 -0.0 0.969364 2.65465 2.13644 18.3904 -26.2405 64.4183 1.15396 -29.7529 0.306547 -11.211 -0.527097 1.33066 -0.14424 0.0614366 -0.937169 -0.0 0.0 -0.0 9.57224 22.6957 -18.2295 -20.9035 -1.0088 -70.7354 0.860849 23.0951 -0.175889 75.0301 3.27834 8.30517 -1.0115 -26.5499 -4.82868 0.0 0.0 0.0 -4.58847 16.5844 3.27969 5.7838 -0.281006 -0.842446 30.5412 -6.31151 -4.03914 -13.025 0.0 0.0 -0.0 0.0 -0.0 19.5269 9.33188 0.394736 -32.5162 0.0605084 -4.92338 30.8562 0.204013 4.00253 -3.93765 0.0 0.0 0.0 0.0 0.0 
1472.59 709.45 -1342.2 2.848 75.4666 -1.61275 0.943596 -0.0244591 1.32882 0.944572 -0.108958 1.32457 0.942198 -0.364017 1.27823 0.939953 -0.157595 1.31967 -8.2607 -4.68216 1.36937 -8.26464 -9.71075 0.315051 -0.0 0.0 -0.0 1.00434 4.39961 2.37509 18.3652 -26.5113 64.9318 1.42808 -35.2746 0.454056 -14.1466 -0.707359 1.66018 -0.54929 -3.27304 -5.08455 -0.0 0.0 -0.0 9.33491 21.2356 -17.8237 -22.7465 -2.25891 -70.9104 0.824159 22.2083 -0.161758 76.7938 3.47409 8.4188 -0.922813 -25.1108 -4.72375 0.0 0.0 0.0 -6.65891 17.2721 4.23926 6.46565 -0.319713 -0.939817 32.878 -6.56453 -4.28688 -13.5978 0.0 0.0 -0.0 0.0 -0.0 20.3587 9.92162 0.225809 -21.7196 -0.271243 -3.30209 25.0538 1.08208 3.36741 -3.73532 0.0 0.0 0.0 0.0 0.0 
1458.41 707.867 -1342.71 2.79932 75.5665 -1.68758 1.01265 0.0841827 1.36697 1.01368 -0.00296329 1.36955 1.01381 -0.267069 1.34327 1.0113 -0.0515934 1.36859 -7.54015 -4.4688 3.40913 -7.50448 -10.7538 2.45461 -0.0 0.0 -0.0 1.26938 5.61417 2.97625 18.6232 -26.5115 65.0451 1.69522 -40.0189 0.617366 -16.3843 -0.856018 1.905 -0.901162 -5.69206 -8.52136 -0.0 0.0 -0.0 9.13009 18.2708 -17.5848 -24.015 -3.07031 -70.8515 0.758048 20.5818 -0.137639 78.4181 3.6574 8.5181 -0.735312 -23.7943 -5.24748 0.0 0.0 0.0 -7.92127 16.9299 4.12364 6.72764 -0.334894 -0.97711 30.7236 -8.617 -4.09779 -14.7914 0.0 0.0 -0.0 0.0 -0.0 20.9264 10.4888 -0.023816 -15.6265 -0.322081 -2.36901 20.5188 2.79119 2.83661 -4.81769 0.0 0.0 0.0 0.0 0.0 
1444.32 706.621 -1341.17 0.895615 75.5425 -0.346985 1.09321 0.107257 1.38561 1.09428 0.018878 1.38962 1.09493 -0.247568 1.36753 1.09232 -0.0285072 1.38946 -7.40284 -4.81605 2.12664 -7.38863 -10.4846 1.11461 -0.0 0.0 -0.0 1.35467 6.0452 3.17026 18.7418 -26.9159 65.0816 1.91449 -43.478 0.763439 -17.5925 -0.940233 2.03474 -1.13487 -7.50727 -10.9126 -0.0 0.0 -0.0 8.83983 17.9922 -16.9613 -25.4824 -3.82638 -71.4962 0.711742 19.4214 -0.121799 79.5109 3.78227 8.58196 -0.800991 -23.2124 -4.63067 0.0 0.0 0.0 -8.89342 17.6896 4.8139 7.68726 -0.391958 -1.11311 31.528 -7.60825 -4.16487 -14.8208 0.0 0.0 -0.0 0.0 -0.0 21.0585 10.4209 -0.681739 -9.80136 -0.277809 -1.47671 17.4849 2.34892 2.44899 -3.51381 0.0 0.0 0.0 0.0 0.0 
1428.72 709.861 -1341.78 -0.0316895 75.2345 0.689141 1.09182 0.146116 1.28252 1.09273 0.0642167 1.28922 1.09436 -0.183837 1.27766 1.09208 0.0202351 1.29066 -7.1899 -5.02122 2.42988 -7.16809 -11.0814 1.39538 -0.0 0.0 -0.0 1.54158 6.38574 3.53787 18.9592 -26.9719 65.2466 2.08709 -45.9488 0.884897 -18.8047 -1.02748 2.16313 -1.30828 -8.67996 -12.6193 -0.0 0.0 -0.0 8.65399 16.6854 -16.6329 -26.8938 -4.41149 -71.4237 0.659926 18.1031 -0.105132 80.4315 3.88839 8.63391 -0.872643 -23.058 -4.15326 0.0 0.0 0.0 -10.2306 17.7741 5.4632 7.15134 -0.359807 -1.03727 30.4619 -8.34937 -4.06481 -15.2871 0.0 0.0 -0.0 0.0 -0.0 22.6373 10.4424 -1.63326 -5.59535 -0.189602 -0.83745 15.177 2.68982 2.14977 -3.5084 0.0 0.0 0.0 0.0 0.0 
1414.21 713.354 -1343.22 1.92739 74.8465 -1.75982 0.94285 0.235909 1.56045 0.944195 0.136148 1.5723 0.948294 -0.171437 1.56884 0.944868 0.0784524 1.57623 -7.85307 -5.46167 3.50451 -7.82189 -12.668 2.3036 -0.0 0.0 -0.0 1.90731 7.09789 4.25288 18.9569 -26.3978 64.8235 2.22126 -47.7289 0.982779 -19.7841 -1.09994 2.2655 -1.53711 -7.1056 -13.514 -0.0 0.0 -0.0 8.5385 13.7152 -16.5344 -28.179 -1.5921 -70.4293 0.66191 18.1539 -0.105749 79.311 3.75934 8.57045 -1.39176 -28.9207 -3.76871 0.0 0.0 0.0 -11.2064 16.0084 5.54012 6.31365 -0.310984 -0.918151 28.4337 -9.63003 -3.86604 -15.4565 0.0 0.0 -0.0 0.0 -0.0 23.0789 10.8469 -2.19145 -0.183242 -0.00750188 -0.0271196 10.8746 3.87625 1.57367 -5.32878 0.0 0.0 0.0 0.0 0.0 
1407.0 709.049 -1344.46 0.707837 74.4251 -0.700742 1.00033 0.313248 1.60618 1.00174 0.210422 1.62286 1.0081 -0.106651 1.63296 1.00442 0.152548 1.62931 -7.84427 -6.01704 3.59892 -7.81229 -13.77 2.27815 -0.0 0.0 -0.0 1.81796 7.31703 4.11031 19.9389 -27.0722 64.6679 2.39504 -49.8663 1.11355 -21.393 -1.22277 2.43097 -1.67131 -7.39436 -14.5753 -0.0 0.0 -0.0 8.7997 14.1959 -17.0828 -28.4204 -2.35535 -70.6007 0.580961 16.0555 -0.0819365 81.8754 4.05646 8.71193 -2.27872 -29.074 0.909619 0.0 0.0 0.0 -11.6395 17.3626 5.97308 7.32306 -0.370032 -1.06161 29.0772 -8.99537 -3.92573 -16.3422 0.0 0.0 -0.0 0.0 -0.0 24.6142 10.4182 -2.69845 4.29918 0.200763 0.628917 5.08177 2.44935 0.746535 -5.32672 0.0 0.0 0.0 0.0 0.0 
1393.95 710.646 -1350.11 -0.630513 73.903 0.157904 1.00697 0.446197 1.7519 1.00861 0.333833 1.77673 1.01951 -0.0148349 1.80775 1.01505 0.270805 1.78742 -7.79153 -5.58163 3.58005 -7.75776 -12.9454 2.36012 -0.0 0.0 -0.0 1.90871 8.38584 4.35366 20.6414 -27.0115 64.4257 2.48868 -50.9447 1.18571 -22.2122 -1.28709 2.5139 -1.46192 -6.21295 -12.5983 -0.0 0.0 -0.0 9.0785 14.2037 -17.6932 -29.125 -4.20273 -71.6652 0.556449 15.411 -0.0752896 83.8374 4.28787 8.81112 -2.73432 -29.0654 3.35291 0.0 0.0 0.0 -11.8651 16.0436 5.483 6.36362 -0.313847 -0.925276 29.0129 -9.61843 -3.93042 -16.6784 0.0 0.0 -0.0 0.0 -0.0 25.1776 10.8552 -2.93652 6.93559 0.347066 1.00666 1.24426 6.4559 0.187779 -5.72546 0.0 0.0 0.0 0.0 0.0 
1374.99 711.983 -1355.54 0.322862 73.5549 -0.691749 0.937632 0.426404 1.87209 0.93953 0.306436 1.89542 0.950291 -0.0669323 1.91885 0.945231 0.236899 1.90535 -7.56974 -6.79584 3.71013 -7.52997 -15.2994 2.25791 -0.0 0.0 -0.0 1.9131 8.99231 4.40685 20.5272 -27.1095 63.8029 2.62102 -52.3878 1.28952 -22.6636 -1.32304 2.5592 -1.52421 -6.39171 -13.1085 -0.0 0.0 -0.0 9.23961 13.1981 -18.0873 -30.453 -2.65933 -71.8891 0.528552 14.6725 -0.0680495 84.4252 4.35784 8.83929 -3.39932 -29.0212 6.9559 0.0 0.0 0.0 -12.9034 15.2481 5.14055 5.03913 -0.240063 -0.735596 28.5509 -9.43511 -3.87546 -17.2675 0.0 0.0 -0.0 0.0 -0.0 25.5633 11.5219 -3.66338 8.05941 0.414702 1.1656 -0.77718 6.21643 -0.117776 -6.39793 0.0 0.0 0.0 0.0 0.0 
1360.93 710.531 -1357.54 -0.514217 73.9249 -0.047248 0.989419 0.409204 1.87119 0.99132 0.289328 1.89342 1.00146 -0.0816284 1.91365 0.996423 0.221566 1.90254 -8.38 -5.77739 3.55845 -8.35955 -13.2918 2.22474 -0.0 0.0 -0.0 2.03829 9.41984 4.65627 20.9469 -26.7724 64.1779 2.59155 -52.0744 1.26623 -24.4689 -1.47036 2.73752 -1.45775 -4.04043 -11.6027 -0.0 0.0 -0.0 9.4137 10.1035 -18.5541 -31.2404 -1.60362 -69.4898 0.527136 14.6349 -0.0676912 84.9009 4.41467 8.86155 -4.04622 -29.3067 10.2904 0.0 0.0 0.0 -14.4903 15.9391 5.65852 6.00519 -0.293446 -0.874111 29.9601 -10.3197 -4.04876 -16.584 0.0 0.0 -0.0 0.0 -0.0 27.0393 12.2909 -3.73134 8.29102 0.429029 1.1982 -3.58674 3.87457 -0.541703 -7.39454 0.0 0.0 0.0 0.0 0.0 
1342.37 706.987 -1359.75 0.712978 72.9834 -1.49778 0.970076 0.415821 1.9726 0.972194 0.289482 1.99505 0.982923 -0.101754 2.01337 0.977332 0.217431 2.00418 -8.88407 -6.61798 2.71988 -8.89631 -14.2825 1.13871 -0.0 0.0 -0.0 1.9265 11.1392 4.58657 21.0385 -26.8721 64.4084 2.74156 -53.625 1.38581 -25.4623 -1.55381 2.83366 -1.43222 -1.96441 -10.4965 -0.0 0.0 -0.0 9.49535 7.68659 -18.7581 -31.924 -0.257675 -67.9172 0.495938 13.8029 -0.060028 84.7401 4.39543 8.85408 -4.68301 -29.1123 13.9267 0.0 0.0 0.0 -14.8573 15.4246 5.3565 2.80932 -0.125841 -0.412659 30.4309 -11.5454 -4.12672 -17.2974 0.0 0.0 -0.0 0.0 -0.0 27.4983 12.9532 -3.95562 8.24769 0.426338 1.1921 -2.82916 5.61613 -0.429656 -8.56847 0.0 0.0 0.0 0.0 0.0 
